<svg xmlns="http://www.w3.org/2000/svg" width="1600" height="900" viewBox="0 0 1600 900" role="img" aria-labelledby="title desc">
  <title id="title">Digital public healthcare delivery ecosystem</title>
  <desc id="desc">Editorial illustration showing frontline healthcare, digital records, telemedicine and governance dashboards connected in a public healthcare service system.</desc>
  <defs>
    <linearGradient id="bg" x1="0" y1="0" x2="1" y2="1">
      <stop offset="0%" stop-color="#f7fbff"/>
      <stop offset="52%" stop-color="#e9f3f8"/>
      <stop offset="100%" stop-color="#f5efe3"/>
    </linearGradient>
    <linearGradient id="panel" x1="0" y1="0" x2="1" y2="1">
      <stop offset="0%" stop-color="#ffffff"/>
      <stop offset="100%" stop-color="#eef7fb"/>
    </linearGradient>
    <filter id="softShadow" x="-20%" y="-20%" width="140%" height="140%">
      <feDropShadow dx="0" dy="12" stdDeviation="18" flood-color="#0c3440" flood-opacity="0.14"/>
    </filter>
  </defs>

  <rect width="1600" height="900" fill="url(#bg)"/>
  <circle cx="1335" cy="148" r="118" fill="#dbeef5" opacity="0.75"/>
  <circle cx="196" cy="720" r="150" fill="#efe4cf" opacity="0.55"/>

  <g filter="url(#softShadow)">
    <rect x="168" y="144" width="1264" height="612" rx="42" fill="#ffffff" opacity="0.92"/>
  </g>

  <g transform="translate(252 238)">
    <rect x="0" y="0" width="338" height="420" rx="32" fill="url(#panel)" stroke="#b9d7e3" stroke-width="3"/>
    <circle cx="169" cy="118" r="58" fill="#4480A8"/>
    <path d="M130 205c21-23 57-23 78 0 30 7 57 30 66 70l12 54H52l12-54c9-40 36-63 66-70z" fill="#1A738C" opacity="0.92"/>
    <rect x="76" y="326" width="186" height="20" rx="10" fill="#B6D0E9"/>
    <rect x="96" y="360" width="146" height="16" rx="8" fill="#d7e8f1"/>
    <text x="169" y="404" text-anchor="middle" font-family="Arial, sans-serif" font-size="23" fill="#315160">Frontline care</text>
  </g>

  <g transform="translate(632 194)">
    <rect x="0" y="0" width="392" height="220" rx="28" fill="#fdfefe" stroke="#bed8e3" stroke-width="3"/>
    <rect x="38" y="44" width="130" height="18" rx="9" fill="#4480A8"/>
    <rect x="38" y="86" width="316" height="14" rx="7" fill="#cfe2ea"/>
    <rect x="38" y="122" width="258" height="14" rx="7" fill="#dbe9ef"/>
    <rect x="38" y="158" width="292" height="14" rx="7" fill="#dbe9ef"/>
    <circle cx="320" cy="56" r="28" fill="#B6D0E9"/>
    <path d="M306 56l10 10 20-24" fill="none" stroke="#1A738C" stroke-width="7" stroke-linecap="round" stroke-linejoin="round"/>
    <text x="196" y="206" text-anchor="middle" font-family="Arial, sans-serif" font-size="22" fill="#315160">Digital health record</text>
  </g>

  <g transform="translate(1060 250)">
    <rect x="0" y="0" width="280" height="314" rx="34" fill="#ffffff" stroke="#bed8e3" stroke-width="3"/>
    <rect x="34" y="40" width="212" height="132" rx="22" fill="#e8f4f9"/>
    <circle cx="140" cy="96" r="36" fill="#1A738C"/>
    <path d="M102 220h76" stroke="#4480A8" stroke-width="14" stroke-linecap="round"/>
    <path d="M102 258h142" stroke="#d3e5ed" stroke-width="12" stroke-linecap="round"/>
    <path d="M102 288h112" stroke="#d3e5ed" stroke-width="12" stroke-linecap="round"/>
    <text x="140" y="202" text-anchor="middle" font-family="Arial, sans-serif" font-size="21" fill="#315160">Telemedicine</text>
  </g>

  <g transform="translate(628 474)">
    <rect x="0" y="0" width="424" height="184" rx="28" fill="#fffdf8" stroke="#e4d4b8" stroke-width="3"/>
    <rect x="42" y="54" width="56" height="82" rx="10" fill="#4480A8"/>
    <rect x="128" y="82" width="56" height="54" rx="10" fill="#1A738C"/>
    <rect x="214" y="38" width="56" height="98" rx="10" fill="#B6D0E9"/>
    <rect x="300" y="66" width="56" height="70" rx="10" fill="#d9c79f"/>
    <path d="M54 144h312" stroke="#8aa9b6" stroke-width="4"/>
    <text x="212" y="168" text-anchor="middle" font-family="Arial, sans-serif" font-size="22" fill="#315160">Governance dashboard</text>
  </g>

  <g fill="none" stroke="#7eaec2" stroke-width="7" stroke-linecap="round" opacity="0.76">
    <path d="M590 448C636 396 645 346 632 304"/>
    <path d="M1024 304c38 16 54 43 62 76"/>
    <path d="M840 414c8 26 8 42 0 60"/>
  </g>

  <g fill="#1A738C" opacity="0.9">
    <circle cx="612" cy="320" r="9"/>
    <circle cx="1048" cy="314" r="9"/>
    <circle cx="840" cy="452" r="9"/>
  </g>

  <text x="800" y="805" text-anchor="middle" font-family="Arial, sans-serif" font-size="34" font-weight="700" fill="#214b58">Digital public healthcare works when service, data and accountability move together</text>
</svg>
