<svg xmlns="http://www.w3.org/2000/svg" width="1200" height="720" viewBox="0 0 1200 720" role="img" aria-labelledby="title desc">
  <title id="title">Digital public healthcare service pathway</title>
  <desc id="desc">Editorial visual showing a connected public healthcare service pathway linking citizen access, health facility, data visibility and service feedback.</desc>
  <defs>
    <linearGradient id="bg" x1="0" y1="0" x2="1" y2="1">
      <stop offset="0%" stop-color="#f7fafc"/>
      <stop offset="52%" stop-color="#eef6f9"/>
      <stop offset="100%" stop-color="#e8f1f6"/>
    </linearGradient>
    <linearGradient id="node" x1="0" y1="0" x2="1" y2="1">
      <stop offset="0%" stop-color="#4480A8"/>
      <stop offset="100%" stop-color="#1A738C"/>
    </linearGradient>
    <filter id="softShadow" x="-20%" y="-20%" width="140%" height="140%">
      <feDropShadow dx="0" dy="16" stdDeviation="18" flood-color="#1A738C" flood-opacity="0.14"/>
    </filter>
    <style>
      .title{font-family:Inter,Arial,sans-serif;font-size:34px;font-weight:700;fill:#17324d}
      .sub{font-family:Inter,Arial,sans-serif;font-size:18px;font-weight:500;fill:#4a6070}
      .label{font-family:Inter,Arial,sans-serif;font-size:18px;font-weight:700;fill:#17324d}
      .small{font-family:Inter,Arial,sans-serif;font-size:14px;font-weight:500;fill:#4a6070}
      .micro{font-family:Inter,Arial,sans-serif;font-size:12px;font-weight:600;fill:#607685}
      .line{fill:none;stroke:#4480A8;stroke-width:4;stroke-linecap:round;stroke-dasharray:10 12;opacity:.62}
      .soft{fill:#ffffff;stroke:#B6D0E9;stroke-width:2}
      .accent{fill:#4480A8}
      .accent2{fill:#1A738C}
      .muted{fill:#B6D0E9}
    </style>
  </defs>

  <rect width="1200" height="720" rx="36" fill="url(#bg)"/>

  <circle cx="1040" cy="120" r="150" fill="#B6D0E9" opacity="0.18"/>
  <circle cx="160" cy="612" r="165" fill="#4480A8" opacity="0.08"/>
  <circle cx="598" cy="360" r="275" fill="#ffffff" opacity="0.35"/>

  <text x="86" y="86" class="title">Digital public healthcare service pathway</text>
  <text x="88" y="120" class="sub">Citizen access • facility response • secure data visibility • service feedback</text>

  <path class="line" d="M244 360 C345 265, 460 260, 560 345 S792 462, 906 360"/>
  <path class="line" d="M244 360 C352 455, 472 460, 590 378 S800 260, 906 360" opacity=".34"/>

  <g filter="url(#softShadow)">
    <rect x="104" y="246" width="220" height="228" rx="28" class="soft"/>
    <circle cx="214" cy="318" r="44" fill="url(#node)"/>
    <path d="M196 319c0-19 14-32 31-32 13 0 24 7 29 18-14 5-25 17-29 32-8-1-31-5-31-18z" fill="#fff" opacity=".9"/>
    <path d="M188 385c18-30 66-30 84 0" fill="none" stroke="#1A738C" stroke-width="8" stroke-linecap="round" opacity=".65"/>
    <text x="214" y="418" text-anchor="middle" class="label">Citizen access</text>
    <text x="214" y="444" text-anchor="middle" class="small">entry point and service request</text>
  </g>

  <g filter="url(#softShadow)">
    <rect x="386" y="174" width="236" height="228" rx="28" class="soft"/>
    <rect x="456" y="238" width="96" height="84" rx="12" fill="url(#node)"/>
    <rect x="477" y="216" width="54" height="34" rx="8" fill="#B6D0E9"/>
    <path d="M504 252v56M476 280h56" stroke="#fff" stroke-width="11" stroke-linecap="round"/>
    <text x="504" y="346" text-anchor="middle" class="label">Health facility</text>
    <text x="504" y="372" text-anchor="middle" class="small">care delivery and response</text>
  </g>

  <g filter="url(#softShadow)">
    <rect x="614" y="320" width="246" height="228" rx="28" class="soft"/>
    <rect x="690" y="376" width="94" height="104" rx="18" fill="url(#node)"/>
    <circle cx="720" cy="410" r="8" fill="#fff"/>
    <circle cx="753" cy="410" r="8" fill="#fff"/>
    <circle cx="720" cy="444" r="8" fill="#fff"/>
    <circle cx="753" cy="444" r="8" fill="#fff"/>
    <path d="M674 498h126" stroke="#B6D0E9" stroke-width="9" stroke-linecap="round"/>
    <text x="737" y="522" text-anchor="middle" class="label">Data visibility</text>
    <text x="737" y="548" text-anchor="middle" class="small">secure service information layer</text>
  </g>

  <g filter="url(#softShadow)">
    <rect x="882" y="230" width="230" height="230" rx="28" class="soft"/>
    <circle cx="997" cy="308" r="44" fill="url(#node)"/>
    <path d="M978 308h38M997 289v38" stroke="#fff" stroke-width="9" stroke-linecap="round"/>
    <path d="M942 382c34 28 78 28 112 0" fill="none" stroke="#1A738C" stroke-width="8" stroke-linecap="round" opacity=".62"/>
    <circle cx="942" cy="382" r="8" fill="#4480A8"/>
    <circle cx="1054" cy="382" r="8" fill="#4480A8"/>
    <text x="997" y="418" text-anchor="middle" class="label">Service feedback</text>
    <text x="997" y="444" text-anchor="middle" class="small">quality and accountability loop</text>
  </g>

  <g opacity=".88">
    <circle cx="356" cy="311" r="9" class="accent"/>
    <circle cx="577" cy="349" r="9" class="accent2"/>
    <circle cx="872" cy="361" r="9" class="accent"/>
    <circle cx="602" cy="426" r="7" class="muted"/>
    <circle cx="468" cy="442" r="7" class="muted"/>
  </g>

  <rect x="84" y="604" width="1032" height="54" rx="18" fill="#ffffff" opacity=".76" stroke="#B6D0E9"/>
  <text x="110" y="637" class="micro">Editorial visual • Conceptual representation only • No real dashboard, logo, facility or personal data shown</text>
</svg>
