<svg xmlns="http://www.w3.org/2000/svg" viewBox="0 0 128 128">
  <defs>
    <radialGradient id="g" cx="50%" cy="35%" r="70%">
      <stop offset="0%" stop-color="#ffe38a"/>
      <stop offset="48%" stop-color="#d7ad45"/>
      <stop offset="100%" stop-color="#7b5a14"/>
    </radialGradient>
    <linearGradient id="b" x1="0" y1="0" x2="1" y2="1">
      <stop offset="0%" stop-color="#071329"/>
      <stop offset="100%" stop-color="#10254c"/>
    </linearGradient>
  </defs>
  <rect width="128" height="128" rx="28" fill="url(#b)"/>
  <path d="M30 75c18-34 48-45 73-30-16 2-29 10-39 24 14-7 28-7 43 1-22 30-62 35-87 16 10 1 21-2 31-9-8 1-15 0-21-2z" fill="url(#g)"/>
  <circle cx="65" cy="70" r="8" fill="#ffe9a6"/>
  <path d="M70 30c8 10 4 20-6 27 2-9-1-15-7-20 8 1 11-3 13-7z" fill="#f2c95d"/>
  <path d="M76 17c14 16 12 30-4 42 5-14 2-25-8-34 7 1 10-2 12-8z" fill="#d7ad45"/>
</svg>
