<svg xmlns="http://www.w3.org/2000/svg" viewBox="0 0 128 128">
  <defs>
    <radialGradient id="gold" cx="50%" cy="35%" r="70%">
      <stop offset="0%" stop-color="#ffe38a"/>
      <stop offset="46%" stop-color="#d7ad45"/>
      <stop offset="100%" stop-color="#7b5a14"/>
    </radialGradient>
    <linearGradient id="navy" x1="0" y1="0" x2="1" y2="1">
      <stop offset="0%" stop-color="#071329"/>
      <stop offset="100%" stop-color="#10254c"/>
    </linearGradient>
  </defs>
  <rect width="128" height="128" rx="28" fill="url(#navy)"/>
  <path d="M29 76c19-35 49-46 75-31-17 3-30 11-40 25 14-7 29-7 44 1-23 31-63 36-89 16 11 1 22-2 32-9-8 1-16 0-22-2z" fill="url(#gold)"/>
  <circle cx="65" cy="70" r="8" fill="#fff0b3"/>
  <path d="M70 30c8 10 4 20-6 27 2-9-1-15-7-20 8 1 11-3 13-7z" fill="#f2c95d"/>
  <path d="M76 17c14 16 12 30-4 42 5-14 2-25-8-34 7 1 10-2 12-8z" fill="#d7ad45"/>
</svg>
