<svg xmlns="http://www.w3.org/2000/svg" viewBox="0 0 128 128">
  <defs>
    <radialGradient id="g1" cx="45%" cy="35%" r="70%">
      <stop offset="0%" stop-color="#fff2b3"/>
      <stop offset="42%" stop-color="#d7ad45"/>
      <stop offset="100%" stop-color="#8c681a"/>
    </radialGradient>
    <radialGradient id="g2" cx="40%" cy="30%" r="80%">
      <stop offset="0%" stop-color="#16315e"/>
      <stop offset="100%" stop-color="#071329"/>
    </radialGradient>
  </defs>
  <rect x="6" y="6" width="116" height="116" rx="30" fill="url(#g2)"/>
  <path d="M24 76c18-34 49-47 80-34-18 4-33 14-44 30 15-8 31-8 48 0-24 32-64 37-91 16 12 2 25-2 37-11-11 3-21 2-30-1z" fill="url(#g1)"/>
  <circle cx="65" cy="68" r="8.8" fill="#fff0b3"/>
  <path d="M67 31c8 9 5 18-4 25 2-8-1-14-8-19 7 1 10-2 12-6z" fill="#f4ce63"/>
  <path d="M75 18c14 15 13 29-4 42 5-14 2-25-8-34 7 1 10-2 12-8z" fill="#d7ad45"/>
</svg>
